<svg xmlns="http://www.w3.org/2000/svg" viewBox="0 0 64 64">
  <defs>
    <linearGradient id="gb" x1="0" y1="0" x2="0" y2="1">
      <stop offset="0" stop-color="#ffd85e"/>
      <stop offset="1" stop-color="#f59e0b"/>
    </linearGradient>
    <linearGradient id="gh" x1="0" y1="0" x2="1" y2="1">
      <stop offset="0" stop-color="#60a5fa"/>
      <stop offset="1" stop-color="#1e40af"/>
    </linearGradient>
    <clipPath id="bodyClip">
      <ellipse cx="35" cy="34" rx="20" ry="13"/>
    </clipPath>
  </defs>
  <path d="M3 21c6 5 9 9 9 13s-3 8-9 13c9-1 15-5 18-9v-8C18 26 12 22 3 21Z" fill="url(#gb)"/>
  <path d="M20 25c3-10 15-15 27-9l-6 9c-7-4-15-4-21 0Z" fill="#fbbf24"/>
  <path d="M28 44l-5 13 11-9Zm12 1l-2 12 9-10Z" fill="#fbbf24"/>
  <ellipse cx="35" cy="34" rx="20" ry="13" fill="url(#gb)"/>
  <rect x="43" y="19" width="14" height="30" fill="url(#gh)" clip-path="url(#bodyClip)"/>
  <circle cx="48" cy="30.5" r="2.7" fill="#0c1e3d"/>
  <circle cx="48.9" cy="29.6" r="0.9" fill="#ffffff"/>
</svg>
